<svg width="753" height="45" viewBox="0 0 753 45" fill="none" xmlns="http://www.w3.org/2000/svg">
<path d="M9.25549 28.4211C10.2175 28.1451 11.3313 15.2531 9.64984 14.2708C12.5728 14.4638 23.2522 13.4654 23.4619 14.2446C25.6874 15.113 22.6857 0.625426 23.4465 0.0834874C23.465 0.0815953 23.4848 0.0778073 23.5036 0.0752858C22.8207 0.207457 36.9125 -0.0619339 37.7682 0.0664497C39.3626 -0.316187 39.1086 13.3875 37.7682 14.2446C38.3252 14.52 51.0869 13.685 51.9252 14.2149C51.3626 14.1846 52.5614 28.0363 51.9739 28.4211C50.9161 28.7823 65.5527 27.853 67.0331 28.4211C67.9952 28.1451 69.1089 15.2531 67.4279 14.2708C70.3508 14.4638 81.0298 13.4654 81.2399 14.2446C83.4655 15.113 80.4634 0.625421 81.2245 0.0834823C81.243 0.0815903 81.2625 0.0778023 81.2817 0.0752807C80.5984 0.207452 91.907 0.219441 94.8036 0.125752C94.6168 0.0166057 94.6902 -0.0619389 95.5455 0.0664447C97.0294 -0.289379 95.8243 13.8938 95.8343 13.8995C95.8309 13.901 95.8287 13.907 95.8253 13.9096C95.8155 13.9105 95.8077 13.9089 95.7983 13.9093C95.7192 14.0723 95.635 14.1875 95.5455 14.2446C96.1028 14.52 108.864 13.685 109.703 14.2149C109.14 14.1846 110.339 28.0363 109.752 28.4211C108.783 28.752 122.359 27.853 123.839 28.4211C124.801 28.1451 125.915 15.2531 124.234 14.2708C127.157 14.4638 137.836 13.4654 138.046 14.2446C140.271 15.113 137.269 0.625416 138.03 0.0834774C138.049 0.0815853 138.068 0.0777973 138.088 0.0752758C137.404 0.207447 148.713 0.219436 151.609 0.125747C151.423 0.0166007 151.496 -0.0619439 152.351 0.0664397C153.946 -0.316197 153.692 13.3875 152.351 14.2446C152.909 14.52 165.67 13.685 166.509 14.2149C165.946 14.1846 167.145 28.0363 166.557 28.4211C165.499 28.7823 180.136 27.853 181.616 28.4211C182.579 28.1451 183.693 15.2531 182.011 14.2707C184.934 14.4638 195.613 13.4654 195.823 14.2446C198.049 15.113 195.047 0.625411 195.808 0.0834723C195.826 0.0815802 195.846 0.0777922 195.865 0.0752707C195.182 0.207442 209.273 -0.0619489 210.129 0.0664346C211.724 -0.316203 211.47 13.3875 210.129 14.2446C210.686 14.5199 223.448 13.685 224.287 14.2149C223.724 14.1846 224.922 28.0363 224.335 28.4211C223.366 28.752 236.942 27.853 238.422 28.4211C239.385 28.1451 240.498 15.253 238.817 14.2707C241.74 14.4638 252.419 13.4654 252.629 14.2446C254.855 15.113 251.853 0.625406 252.614 0.0834674C252.632 0.0815753 252.652 0.0777873 252.671 0.0752658C251.988 0.207437 263.296 0.219426 266.193 0.125737C266.006 0.0165907 266.079 -0.0619539 266.935 0.0664297C268.53 -0.316207 268.276 13.3875 266.935 14.2446C267.492 14.5199 280.254 13.685 281.093 14.2149C280.529 14.1846 281.728 28.0363 281.141 28.4211C280.083 28.7823 287.842 28.4211 287.842 28.4211C288.118 28.5069 294.719 27.853 296.2 28.4211C297.162 28.1451 298.276 15.253 296.595 14.2707C299.518 14.4638 310.91 14.1982 311.042 13.831C311.018 13.8392 309.735 0.550957 310.391 0.0834623C310.41 0.0815702 310.429 0.0777822 310.448 0.0752607C309.765 0.207432 321.074 0.219421 323.97 0.125732C323.784 0.0165857 323.857 -0.0619589 324.713 0.0664246C326.307 -0.316213 326.053 13.3875 324.713 14.2446C325.27 14.5199 338.032 13.6849 338.87 14.2149C338.307 14.1846 339.506 28.0363 338.919 28.4211C337.949 28.752 351.525 27.853 353.006 28.4211C353.968 28.1451 355.082 15.253 353.4 14.2707C356.324 14.4638 367.002 13.4654 367.213 14.2445C369.438 15.113 366.437 0.625396 367.197 0.0834573C367.216 0.0815653 367.235 0.0777773 367.254 0.0752557C366.571 0.207427 380.663 -0.0619639 381.518 0.0664197C383.113 -0.316218 382.859 13.3875 381.518 14.2445C382.076 14.5199 394.837 13.6849 395.676 14.2149C395.361 14.1979 395.978 28.2552 395.724 28.4211C394.666 28.7823 409.303 27.853 410.783 28.4211C411.746 28.1451 412.86 15.253 411.178 14.2707C414.101 14.4638 424.78 13.4654 424.99 14.2445C427.216 15.113 424.214 0.625391 424.975 0.0834523C424.993 0.0815602 425.013 0.0777722 425.032 0.0752507C424.349 0.207422 435.658 0.219411 438.554 0.125722C438.367 0.0165757 438.441 -0.061969 439.296 0.0664146C440.891 -0.316223 440.637 13.3875 439.296 14.2445C439.853 14.5199 449.32 14.1386 452.665 14.2146C452.366 14.0398 452.615 13.6849 453.454 14.2149C452.891 14.1846 454.089 28.0362 453.502 28.4211C452.533 28.752 466.109 27.853 467.589 28.4211C468.552 28.1451 469.665 15.253 467.984 14.2707C470.907 14.4638 481.586 13.4654 481.796 14.2445C484.022 15.113 481.02 0.625386 481.781 0.0834473C481.799 0.0815552 481.819 0.0777672 481.838 0.0752457C481.155 0.207417 495.246 -0.0619739 496.102 0.0664096C497.697 -0.316228 497.442 13.3875 496.102 14.2445C496.659 14.5199 509.421 13.6849 510.26 14.2149C509.696 14.1846 510.895 28.0362 510.308 28.4211C509.25 28.7823 523.887 27.853 525.367 28.4211C526.329 28.1451 527.443 15.253 525.762 14.2707C528.685 14.4638 539.364 13.4654 539.574 14.2445C541.799 15.113 538.798 0.625381 539.558 0.0834423C539.577 0.0815502 539.596 0.0777622 539.616 0.0752407C538.933 0.207412 550.241 0.219401 553.137 0.125712C552.951 0.0165656 555.22 13.3875 553.88 14.2445C554.437 14.5199 567.198 13.6849 568.037 14.2149C567.474 14.1846 568.673 28.0362 568.085 28.4211C567.117 28.752 580.692 27.853 582.173 28.4211C583.135 28.1451 584.249 15.253 582.567 14.2707C585.491 14.4638 596.17 13.4654 596.38 14.2445C598.605 15.113 595.603 0.625376 596.364 0.0834373C596.382 0.0815452 596.402 0.0777572 596.421 0.0752357C595.738 0.207407 607.047 0.219396 609.943 0.125707C609.757 0.0165607 609.83 -0.0619839 610.686 0.0663996C612.28 -0.316238 612.026 13.3875 610.686 14.2445C611.243 14.5199 624.004 13.6849 624.843 14.2149C624.28 14.1846 625.479 28.0362 624.891 28.4211C623.834 28.7823 638.47 27.8529 639.951 28.4211C640.913 28.1451 642.027 15.253 640.345 14.2707C643.268 14.4638 654.346 14.2489 654.241 14.2429C654.234 14.0275 653.45 0.576162 654.142 0.0834323C654.16 0.0815402 654.18 0.0777522 654.199 0.0752307C653.516 0.207402 667.608 -0.061989 668.463 0.0663946C670.058 -0.316243 669.804 13.3875 668.463 14.2445C669.02 14.5199 681.782 13.6849 682.621 14.2149C682.057 14.1846 683.257 28.0362 682.669 28.4211C681.7 28.752 695.276 27.8529 696.756 28.4211C697.719 28.145 698.832 15.253 697.151 14.2707C700.074 14.4638 710.753 13.4654 710.963 14.2445C713.188 15.1129 710.187 0.625366 710.948 0.0834273C710.966 0.0815352 710.986 0.0777472 711.005 0.0752257C710.322 0.207397 724.414 -0.061994 725.269 0.0663896C726.864 -0.316248 726.61 13.3874 725.269 14.2445C725.826 14.5199 735.293 14.1385 738.638 14.2145C738.339 14.0398 740.062 28.0362 739.475 28.4211C737.528 29.0857 752.283 28.452 753 28.4211L753 44.3341C752.954 44.3591 688.728 44.8856 689.262 44.4698C689.132 44.4496 678.567 44.1105 672.61 44.3506C669.778 45.0975 665.021 44.2178 660.757 44.3651C657.321 43.9329 594.383 45.3278 591.125 44.3506C588.675 43.7276 563.983 44.1105 558.027 44.3506C555.194 45.0976 550.437 44.2178 546.173 44.3651C542.738 43.9329 537.577 45.3278 534.32 44.3506C531.632 43.6676 506.205 44.1105 500.249 44.3506C497.417 45.0976 449.399 44.1105 443.443 44.3506C440.611 45.0976 435.854 44.2178 431.59 44.3651C428.154 43.9329 391.622 44.1105 385.666 44.3506C382.833 45.0976 378.076 44.2178 373.812 44.3651C370.376 43.9329 334.816 44.1105 328.86 44.3506C326.027 45.0976 321.27 44.2178 317.006 44.3651C313.57 43.9329 308.41 45.3278 305.153 44.3506C302.465 43.6676 277.038 44.1105 271.082 44.3506C268.25 45.0976 250.632 45.3279 247.375 44.3506C244.924 43.7276 193.826 45.3279 190.569 44.3506C187.882 43.6677 148.909 44.2178 144.645 44.3651C141.209 43.933 136.048 45.3279 132.792 44.3506C130.341 43.7276 0.322815 44.1588 -6.5822e-08 44.2472L0.897459 28.4211C2.70318 28.9833 7.77502 27.853 9.25549 28.4211Z" fill="#FBC49B"/>
</svg>
