<svg xmlns="http://www.w3.org/2000/svg" xmlns:xlink="http://www.w3.org/1999/xlink" width="1366" zoomAndPan="magnify" viewBox="0 0 1024.5 193.499995" height="258" preserveAspectRatio="xMidYMid meet" version="1.0"><defs><clipPath id="9edd13e385"><path d="M 1.070312 0 L 1022.929688 0 L 1022.929688 193 L 1.070312 193 Z M 1.070312 0 " clip-rule="nonzero"/></clipPath><clipPath id="60333c75cc"><path d="M 106 1 L 340 1 L 340 193 L 106 193 Z M 106 1 " clip-rule="nonzero"/></clipPath><clipPath id="65381e24ae"><path d="M 105.007812 0 L 341.25 0 L 341.25 193 L 105.007812 193 Z M 105.007812 0 " clip-rule="nonzero"/></clipPath><clipPath id="ec08061b48"><path d="M 294 1 L 527 1 L 527 193 L 294 193 Z M 294 1 " clip-rule="nonzero"/></clipPath><clipPath id="31fd4f5e77"><path d="M 292.566406 0 L 528.8125 0 L 528.8125 193 L 292.566406 193 Z M 292.566406 0 " clip-rule="nonzero"/></clipPath><clipPath id="6903dd0c34"><path d="M 485 1 L 718 1 L 718 193 L 485 193 Z M 485 1 " clip-rule="nonzero"/></clipPath><clipPath id="57838c4a5e"><path d="M 483.101562 0 L 719.34375 0 L 719.34375 193 L 483.101562 193 Z M 483.101562 0 " clip-rule="nonzero"/></clipPath><clipPath id="ffc5daa798"><path d="M 675 1 L 908 1 L 908 193 L 675 193 Z M 675 1 " clip-rule="nonzero"/></clipPath><clipPath id="a3c3e76634"><path d="M 673.632812 0 L 909.875 0 L 909.875 193 L 673.632812 193 Z M 673.632812 0 " clip-rule="nonzero"/></clipPath><clipPath id="1ee09ca9cc"><path d="M 870 1 L 1021.929688 1 L 1021.929688 193 L 870 193 Z M 870 1 " clip-rule="nonzero"/></clipPath><clipPath id="17bb4cbeff"><path d="M 868.527344 0 L 1021.929688 0 L 1021.929688 193 L 868.527344 193 Z M 868.527344 0 " clip-rule="nonzero"/></clipPath><clipPath id="a6c8273196"><path d="M 0.0703125 1 L 152 1 L 152 193 L 0.0703125 193 Z M 0.0703125 1 " clip-rule="nonzero"/></clipPath><clipPath id="694dbff91f"><path d="M 0.0703125 0 L 153.621094 0 L 153.621094 193 L 0.0703125 193 Z M 0.0703125 0 " clip-rule="nonzero"/></clipPath><clipPath id="00b413ff7c"><path d="M 0.386719 95.707031 L 1021.527344 95.707031 L 1021.527344 192.511719 L 0.386719 192.511719 Z M 0.386719 95.707031 " clip-rule="nonzero"/></clipPath><clipPath id="ec7ded822e"><path d="M 0.386719 0.707031 L 1021.527344 0.707031 L 1021.527344 97.511719 L 0.386719 97.511719 Z M 0.386719 0.707031 " clip-rule="nonzero"/></clipPath><clipPath id="1b84d5fdd6"><rect x="0" width="1022" y="0" height="98"/></clipPath><clipPath id="2e015e779d"><rect x="0" width="1022" y="0" height="193"/></clipPath></defs><g clip-path="url(#9edd13e385)"><g transform="matrix(1, 0, 0, 1, 1, 0)"><g clip-path="url(#2e015e779d)"><g clip-path="url(#60333c75cc)"><path fill="#f5ead5" d="M 339.136719 135.882812 L 294.398438 135.882812 L 294.398438 189.390625 L 240.890625 189.390625 L 240.890625 234.128906 L 205.214844 234.128906 L 205.214844 189.390625 L 151.707031 189.390625 L 151.707031 135.882812 L 106.96875 135.882812 L 106.96875 100.210938 L 151.707031 100.210938 L 151.707031 46.699219 L 205.214844 46.699219 L 205.214844 1.960938 L 240.890625 1.960938 L 240.890625 46.699219 L 294.398438 46.699219 L 294.398438 100.210938 L 339.136719 100.210938 Z M 339.136719 135.882812 " fill-opacity="1" fill-rule="nonzero"/></g><g clip-path="url(#65381e24ae)"><path fill="#f5ead5" d="M 242.851562 236.09375 L 203.253906 236.09375 L 203.253906 191.351562 L 149.746094 191.351562 L 149.746094 137.84375 L 105.007812 137.84375 L 105.007812 98.25 L 149.746094 98.25 L 149.746094 44.738281 L 203.253906 44.738281 L 203.253906 0 L 242.851562 0 L 242.851562 44.738281 L 296.359375 44.738281 L 296.359375 98.246094 L 341.097656 98.246094 L 341.097656 137.84375 L 296.359375 137.84375 L 296.359375 191.351562 L 242.851562 191.351562 Z M 207.179688 232.167969 L 238.929688 232.167969 L 238.929688 187.429688 L 292.4375 187.429688 L 292.4375 133.921875 L 337.175781 133.921875 L 337.175781 102.171875 L 292.4375 102.171875 L 292.4375 48.660156 L 238.929688 48.660156 L 238.929688 3.921875 L 207.179688 3.921875 L 207.179688 48.660156 L 153.667969 48.660156 L 153.667969 102.171875 L 108.929688 102.171875 L 108.929688 133.921875 L 153.667969 133.921875 L 153.667969 187.429688 L 207.179688 187.429688 Z M 207.179688 232.167969 " fill-opacity="1" fill-rule="nonzero"/></g><g clip-path="url(#ec08061b48)"><path fill="#f5ead5" d="M 526.699219 135.882812 L 481.957031 135.882812 L 481.957031 189.390625 L 428.449219 189.390625 L 428.449219 234.128906 L 392.777344 234.128906 L 392.777344 189.390625 L 339.269531 189.390625 L 339.269531 135.882812 L 294.527344 135.882812 L 294.527344 100.210938 L 339.269531 100.210938 L 339.269531 46.699219 L 392.777344 46.699219 L 392.777344 1.960938 L 428.449219 1.960938 L 428.449219 46.699219 L 481.957031 46.699219 L 481.957031 100.210938 L 526.699219 100.210938 Z M 526.699219 135.882812 " fill-opacity="1" fill-rule="nonzero"/></g><g clip-path="url(#31fd4f5e77)"><path fill="#f5ead5" d="M 430.410156 236.09375 L 390.816406 236.09375 L 390.816406 191.351562 L 337.304688 191.351562 L 337.304688 137.84375 L 292.566406 137.84375 L 292.566406 98.25 L 337.304688 98.25 L 337.304688 44.738281 L 390.816406 44.738281 L 390.816406 0 L 430.410156 0 L 430.410156 44.738281 L 483.921875 44.738281 L 483.921875 98.246094 L 528.660156 98.246094 L 528.660156 137.84375 L 483.921875 137.84375 L 483.921875 191.351562 L 430.410156 191.351562 Z M 394.738281 232.167969 L 426.488281 232.167969 L 426.488281 187.429688 L 479.996094 187.429688 L 479.996094 133.921875 L 524.734375 133.921875 L 524.734375 102.171875 L 479.996094 102.171875 L 479.996094 48.660156 L 426.488281 48.660156 L 426.488281 3.921875 L 394.738281 3.921875 L 394.738281 48.660156 L 341.230469 48.660156 L 341.230469 102.171875 L 296.492188 102.171875 L 296.492188 133.921875 L 341.230469 133.921875 L 341.230469 187.429688 L 394.738281 187.429688 Z M 394.738281 232.167969 " fill-opacity="1" fill-rule="nonzero"/></g><g clip-path="url(#6903dd0c34)"><path fill="#f5ead5" d="M 717.230469 135.882812 L 672.492188 135.882812 L 672.492188 189.390625 L 618.980469 189.390625 L 618.980469 234.128906 L 583.308594 234.128906 L 583.308594 189.390625 L 529.800781 189.390625 L 529.800781 135.882812 L 485.0625 135.882812 L 485.0625 100.210938 L 529.800781 100.210938 L 529.800781 46.699219 L 583.308594 46.699219 L 583.308594 1.960938 L 618.980469 1.960938 L 618.980469 46.699219 L 672.492188 46.699219 L 672.492188 100.210938 L 717.230469 100.210938 Z M 717.230469 135.882812 " fill-opacity="1" fill-rule="nonzero"/></g><g clip-path="url(#57838c4a5e)"><path fill="#f5ead5" d="M 620.945312 236.09375 L 581.347656 236.09375 L 581.347656 191.351562 L 527.839844 191.351562 L 527.839844 137.84375 L 483.101562 137.84375 L 483.101562 98.25 L 527.839844 98.25 L 527.839844 44.738281 L 581.347656 44.738281 L 581.347656 0 L 620.945312 0 L 620.945312 44.738281 L 674.453125 44.738281 L 674.453125 98.246094 L 719.191406 98.246094 L 719.191406 137.84375 L 674.453125 137.84375 L 674.453125 191.351562 L 620.945312 191.351562 Z M 585.269531 232.167969 L 617.019531 232.167969 L 617.019531 187.429688 L 670.527344 187.429688 L 670.527344 133.921875 L 715.269531 133.921875 L 715.269531 102.171875 L 670.527344 102.171875 L 670.527344 48.660156 L 617.019531 48.660156 L 617.019531 3.921875 L 585.269531 3.921875 L 585.269531 48.660156 L 531.761719 48.660156 L 531.761719 102.171875 L 487.023438 102.171875 L 487.023438 133.921875 L 531.761719 133.921875 L 531.761719 187.429688 L 585.269531 187.429688 Z M 585.269531 232.167969 " fill-opacity="1" fill-rule="nonzero"/></g><g clip-path="url(#ffc5daa798)"><path fill="#f5ead5" d="M 907.761719 135.882812 L 863.023438 135.882812 L 863.023438 189.390625 L 809.515625 189.390625 L 809.515625 234.128906 L 773.84375 234.128906 L 773.84375 189.390625 L 720.332031 189.390625 L 720.332031 135.882812 L 675.59375 135.882812 L 675.59375 100.210938 L 720.332031 100.210938 L 720.332031 46.699219 L 773.84375 46.699219 L 773.84375 1.960938 L 809.515625 1.960938 L 809.515625 46.699219 L 863.023438 46.699219 L 863.023438 100.210938 L 907.761719 100.210938 Z M 907.761719 135.882812 " fill-opacity="1" fill-rule="nonzero"/></g><g clip-path="url(#a3c3e76634)"><path fill="#f5ead5" d="M 811.476562 236.09375 L 771.878906 236.09375 L 771.878906 191.351562 L 718.371094 191.351562 L 718.371094 137.84375 L 673.632812 137.84375 L 673.632812 98.25 L 718.371094 98.25 L 718.371094 44.738281 L 771.878906 44.738281 L 771.878906 0 L 811.476562 0 L 811.476562 44.738281 L 864.984375 44.738281 L 864.984375 98.246094 L 909.722656 98.246094 L 909.722656 137.84375 L 864.984375 137.84375 L 864.984375 191.351562 L 811.476562 191.351562 Z M 775.804688 232.167969 L 807.554688 232.167969 L 807.554688 187.429688 L 861.0625 187.429688 L 861.0625 133.921875 L 905.800781 133.921875 L 905.800781 102.171875 L 861.0625 102.171875 L 861.0625 48.660156 L 807.554688 48.660156 L 807.554688 3.921875 L 775.804688 3.921875 L 775.804688 48.660156 L 722.292969 48.660156 L 722.292969 102.171875 L 677.554688 102.171875 L 677.554688 133.921875 L 722.292969 133.921875 L 722.292969 187.429688 L 775.804688 187.429688 Z M 775.804688 232.167969 " fill-opacity="1" fill-rule="nonzero"/></g><g clip-path="url(#1ee09ca9cc)"><path fill="#f5ead5" d="M 1102.65625 135.882812 L 1057.917969 135.882812 L 1057.917969 189.390625 L 1004.410156 189.390625 L 1004.410156 234.128906 L 968.734375 234.128906 L 968.734375 189.390625 L 915.226562 189.390625 L 915.226562 135.882812 L 870.488281 135.882812 L 870.488281 100.210938 L 915.226562 100.210938 L 915.226562 46.699219 L 968.734375 46.699219 L 968.734375 1.960938 L 1004.410156 1.960938 L 1004.410156 46.699219 L 1057.917969 46.699219 L 1057.917969 100.210938 L 1102.65625 100.210938 Z M 1102.65625 135.882812 " fill-opacity="1" fill-rule="nonzero"/></g><g clip-path="url(#17bb4cbeff)"><path fill="#f5ead5" d="M 1006.371094 236.09375 L 966.773438 236.09375 L 966.773438 191.351562 L 913.265625 191.351562 L 913.265625 137.84375 L 868.527344 137.84375 L 868.527344 98.25 L 913.265625 98.25 L 913.265625 44.738281 L 966.773438 44.738281 L 966.773438 0 L 1006.371094 0 L 1006.371094 44.738281 L 1059.878906 44.738281 L 1059.878906 98.246094 L 1104.617188 98.246094 L 1104.617188 137.84375 L 1059.878906 137.84375 L 1059.878906 191.351562 L 1006.371094 191.351562 Z M 970.699219 232.167969 L 1002.445312 232.167969 L 1002.445312 187.429688 L 1055.957031 187.429688 L 1055.957031 133.921875 L 1100.695312 133.921875 L 1100.695312 102.171875 L 1055.957031 102.171875 L 1055.957031 48.660156 L 1002.445312 48.660156 L 1002.445312 3.921875 L 970.699219 3.921875 L 970.699219 48.660156 L 917.1875 48.660156 L 917.1875 102.171875 L 872.449219 102.171875 L 872.449219 133.921875 L 917.1875 133.921875 L 917.1875 187.429688 L 970.699219 187.429688 Z M 970.699219 232.167969 " fill-opacity="1" fill-rule="nonzero"/></g><g clip-path="url(#a6c8273196)"><path fill="#f5ead5" d="M 151.507812 135.882812 L 106.769531 135.882812 L 106.769531 189.390625 L 53.261719 189.390625 L 53.261719 234.128906 L 17.589844 234.128906 L 17.589844 189.390625 L -35.921875 189.390625 L -35.921875 135.882812 L -80.660156 135.882812 L -80.660156 100.210938 L -35.921875 100.210938 L -35.921875 46.699219 L 17.589844 46.699219 L 17.589844 1.960938 L 53.261719 1.960938 L 53.261719 46.699219 L 106.769531 46.699219 L 106.769531 100.210938 L 151.507812 100.210938 Z M 151.507812 135.882812 " fill-opacity="1" fill-rule="nonzero"/></g><g clip-path="url(#694dbff91f)"><path fill="#f5ead5" d="M 55.222656 236.09375 L 15.625 236.09375 L 15.625 191.351562 L -37.882812 191.351562 L -37.882812 137.84375 L -82.621094 137.84375 L -82.621094 98.25 L -37.882812 98.25 L -37.882812 44.738281 L 15.625 44.738281 L 15.625 0 L 55.222656 0 L 55.222656 44.738281 L 108.730469 44.738281 L 108.730469 98.246094 L 153.46875 98.246094 L 153.46875 137.84375 L 108.730469 137.84375 L 108.730469 191.351562 L 55.222656 191.351562 Z M 19.550781 232.167969 L 51.300781 232.167969 L 51.300781 187.429688 L 104.808594 187.429688 L 104.808594 133.921875 L 149.546875 133.921875 L 149.546875 102.171875 L 104.808594 102.171875 L 104.808594 48.660156 L 51.300781 48.660156 L 51.300781 3.921875 L 19.550781 3.921875 L 19.550781 48.660156 L -33.960938 48.660156 L -33.960938 102.171875 L -78.699219 102.171875 L -78.699219 133.921875 L -33.960938 133.921875 L -33.960938 187.429688 L 19.550781 187.429688 Z M 19.550781 232.167969 " fill-opacity="1" fill-rule="nonzero"/></g><g clip-path="url(#00b413ff7c)"><g transform="matrix(1, 0, 0, 1, -0.000000000000000444, 95)"><g clip-path="url(#1b84d5fdd6)"><g clip-path="url(#ec7ded822e)"><path fill="#f5ead5" d="M 0.386719 0.707031 L 1021.386719 0.707031 L 1021.386719 97.511719 L 0.386719 97.511719 Z M 0.386719 0.707031 " fill-opacity="1" fill-rule="nonzero"/></g></g></g></g></g></g></g></svg>